<svg width="18" height="18" viewBox="0 0 18 18" fill="none" xmlns="http://www.w3.org/2000/svg">
<path d="M4.5 17.25C4.0875 17.25 3.73438 17.1031 3.44063 16.8094C3.14688 16.5156 3 16.1625 3 15.75V2.25C3 1.8375 3.14688 1.48438 3.44063 1.19063C3.73438 0.896875 4.0875 0.75 4.5 0.75H12C12.4125 0.75 12.7656 0.896875 13.0594 1.19063C13.3531 1.48438 13.5 1.8375 13.5 2.25V5.25H12V4.5H4.5V13.5H12V12.75H13.5V15.75C13.5 16.1625 13.3531 16.5156 13.0594 16.8094C12.7656 17.1031 12.4125 17.25 12 17.25H4.5ZM4.5 15V15.75H12V15H4.5ZM11.2125 12L8.025 8.8125L9.075 7.7625L11.2125 9.9L15.45 5.6625L16.5 6.7125L11.2125 12ZM4.5 3H12V2.25H4.5V3Z" fill="#F4CE14"/>
</svg>
